<svg id="Capa_1" enable-background="new 0 0 512 512" height="512" viewBox="0 0 512 512" width="512" xmlns="http://www.w3.org/2000/svg"><g><path d="m512 256c0 51.37-15.13 99.2-41.18 139.29-10.286 15.836-49.464 11.216-62.899 24.372-17.455 17.093-10.161 50.951-31.921 62.518-35.79 19.04-76.64 29.82-120 29.82s-84.21-10.78-120-29.82c-38.51-20.47-71.17-50.48-94.82-86.89-26.05-40.09-41.18-87.92-41.18-139.29s15.13-99.2 41.18-139.29c10.1-15.54 21.84-29.92 34.97-42.89 46.23-45.64 109.75-73.82 179.85-73.82s133.62 28.18 179.85 73.82c13.13 12.97 24.87 27.35 34.97 42.89 26.05 40.09 41.18 87.92 41.18 139.29z" fill="#26457d"/><path d="m470.82 73.82v321.47c-23.65 36.41-56.31 66.42-94.82 86.89h-302.894c-17.633 0-31.927-14.294-31.927-31.927v-376.433z" fill="#f9f6f6"/><path d="m41.178 73.82h429.643v55.867h-429.643z" fill="#dddaec"/><path d="m467.481 112.395h-422.962c-14.653 0-26.531-11.878-26.531-26.531v-36.059c0-14.653 11.878-26.531 26.531-26.531h422.962c14.653 0 26.531 11.878 26.531 26.531v36.058c.001 14.653-11.878 26.532-26.531 26.532z" fill="#ffe07d"/><path d="m76.467 112.395h-31.94c-14.66 0-26.54-11.88-26.54-26.54v-36.05c0-14.66 11.88-26.54 26.54-26.54h31.94c-14.65 0-26.53 11.88-26.53 26.54v36.05c0 14.66 11.88 26.54 26.53 26.54z" fill="#ffc250"/><g><g fill="#dddaec"><circle cx="196.198" cy="170.189" r="20.618"/><circle cx="250.954" cy="170.189" r="20.618"/><circle cx="305.709" cy="170.189" r="20.618"/><circle cx="360.465" cy="170.189" r="20.618"/><circle cx="415.221" cy="170.189" r="20.618"/></g><g><circle cx="86.686" cy="233.133" fill="#dddaec" r="20.618"/><circle cx="141.442" cy="233.133" fill="#dddaec" r="20.618"/><g fill="#dd5790"><circle cx="196.198" cy="233.133" r="20.618"/><circle cx="250.954" cy="233.133" r="20.618"/><circle cx="305.709" cy="233.133" r="20.618"/><circle cx="360.465" cy="233.133" r="20.618"/><circle cx="415.221" cy="233.133" r="20.618"/></g></g><g fill="#dd5790"><circle cx="86.686" cy="296.077" r="20.618"/><circle cx="141.442" cy="296.077" r="20.618"/><circle cx="196.198" cy="296.077" r="20.618"/><circle cx="250.954" cy="296.077" r="20.618"/><circle cx="305.709" cy="296.077" r="20.618"/><circle cx="360.465" cy="296.077" r="20.618"/><circle cx="415.221" cy="296.077" r="20.618"/></g><g><circle cx="86.686" cy="359.022" fill="#dd5790" r="20.618"/><circle cx="141.442" cy="359.022" fill="#dd5790" r="20.618"/><g fill="#dddaec"><circle cx="196.198" cy="359.022" r="20.618"/><circle cx="250.954" cy="359.022" r="20.618"/><circle cx="305.709" cy="359.022" r="20.618"/><circle cx="360.465" cy="359.022" r="20.618"/><circle cx="415.221" cy="359.022" r="20.618"/></g></g><g fill="#dddaec"><circle cx="86.686" cy="421.966" r="20.618"/><circle cx="141.442" cy="421.966" r="20.618"/><circle cx="196.198" cy="421.966" r="20.618"/></g></g><g><circle cx="423.643" cy="88.357" fill="#9d66d5" r="88.357"/><circle cx="423.643" cy="88.357" fill="#f9f6f6" r="74.357"/><circle cx="423.643" cy="88.357" fill="#f9f6f6" r="74.357"/><path d="m439.105 161.097c-4.99 1.06-10.16 1.62-15.46 1.62-41 0-74.36-33.36-74.36-74.36s33.36-74.36 74.36-74.36c5.3 0 10.47.56 15.46 1.62-33.6 7.13-58.89 37.04-58.89 72.74s25.29 65.61 58.89 72.74z" fill="#dddaec"/><g><g><path d="m394.697 132.267c-4.143 0-7.5-3.358-7.5-7.5v-65.318h-8.064c-4.143 0-7.5-3.358-7.5-7.5s3.357-7.5 7.5-7.5h15.564c4.143 0 7.5 3.358 7.5 7.5v72.817c0 4.143-3.357 7.501-7.5 7.501z" fill="#9d66d5"/></g><g><path d="m458.68 132.267c-.021 0-.043 0-.065 0-4.143-.036-7.471-3.422-7.436-7.564.037-4.257.074-8.993.11-13.926h-28.863c-2.653 0-5.109-1.402-6.458-3.687-1.35-2.285-1.391-5.112-.109-7.436 4.098-7.427 24.75-44.737 28.959-49.901 3.623-4.446 8.529-6.249 13.123-4.826 4.64 1.438 7.936 5.931 8.395 11.449.218 2.611.16 21.751.056 39.401h1.762c4.143 0 7.5 3.358 7.5 7.5s-3.357 7.5-7.5 7.5h-1.861c-.047 6.337-.09 11.462-.112 14.056-.038 4.118-3.389 7.433-7.501 7.434zm-23.513-36.491h16.221c.063-10.874.106-21.356.099-28.615-4.123 6.976-10.159 17.584-16.32 28.615z" fill="#9d66d5"/></g></g></g></g></svg>