<svg id="Capa_1" enable-background="new 0 0 512 512" height="512" viewBox="0 0 512 512" width="512" xmlns="http://www.w3.org/2000/svg"><g><path d="m512 256c0 134.566-103.826 244.882-235.74 255.21-6.684.523-36.856-38.423-43.674-38.423-74.34 0-104.196-9.755-164.634-43.079-42.179-45.638-67.952-106.663-67.952-173.708 0-141.385 114.615-256 256-256s256 114.615 256 256z" fill="#9dc6fb"/><g><g><path d="m276.26 478.17v33.04c-6.69.52-13.44.79-20.26.79-74.34 0-141.27-31.69-188.05-82.29 14.82-19.93 38.54-32.84 65.29-32.84h61.71c44.91 0 81.31 36.4 81.31 81.3z" fill="#dd5790"/><path d="m187.34 396.87c-40.18 0-73.56 29.14-80.13 67.46-14.24-10.18-27.4-21.79-39.26-34.62 0 0-.01 0 0-.01 14.82-19.92 38.54-32.83 65.29-32.83z" fill="#9d549b"/><path d="m200.521 306.091v96.329c0 10.162-4.121 19.359-10.78 26.007-6.648 6.659-15.845 10.78-26.007 10.78-7.158 0-13.839-2.039-19.478-5.585-10.39-6.496-17.309-18.047-17.309-31.202v-96.329z" fill="#ffddce"/><g fill="#ffcbbe"><path d="m200.521 306.091v91.807c-5.011.705-10.119 1.063-15.325 1.063-21.376 0-41.343-6.073-58.251-16.594v-76.276z"/><path d="m144.254 343.486v90.137c-10.39-6.496-17.309-18.047-17.309-31.202v-58.934h17.309z"/></g></g><path d="m154.202 48.59c-39.566 0-72.679 27.537-81.279 64.486l-19.6-19.6c-13.966 13.966-16.765 34.859-8.422 51.616h-23.643c0 24.73 20.047 44.777 44.777 44.777 1.585 0 3.15-.085 4.692-.246v7.918h136.688v-148.951z" fill="#21386b"/><path d="m75.351 203.03c-17.487 17.487-17.487 45.838 0 63.325s45.838 17.487 63.325 0" fill="#26457d"/><path d="m316.327 242.015h-244.448c-15.826 0-28.655-12.829-28.655-28.655 0-15.826 12.829-28.655 28.655-28.655h244.448c15.826 0 28.655 12.829 28.655 28.655.001 15.826-12.829 28.655-28.655 28.655z" fill="#ffcbbe"/><path d="m71.879 225.602c-6.75 0-12.242-5.492-12.242-12.242s5.492-12.242 12.242-12.242h244.448c6.75 0 12.242 5.492 12.242 12.242s-5.492 12.242-12.242 12.242z" fill="#eaac9d"/><path d="m198.8 382.368c-61.043 0-110.528-49.485-110.528-110.528v-78.364c0-61.043 49.485-110.528 110.528-110.528h61.599c27.023 0 48.929 21.906 48.929 48.929v139.963c0 61.043-49.485 110.528-110.528 110.528z" fill="#ffddce"/><path d="m226.075 378.974c-8.723 2.216-17.856 3.388-27.27 3.388-61.047 0-110.533-49.475-110.533-110.522v-78.363c0-61.047 49.487-110.533 110.533-110.533h54.528c-61.035 0-110.522 49.487-110.522 110.533v78.363c.001 51.644 35.407 94.999 83.264 107.134z" fill="#ffcbbe"/><path d="m232.483 242.6h-28.071v-145.616c0-7.751 6.284-14.035 14.035-14.035 7.751 0 14.035 6.284 14.035 14.035v145.616z" fill="#ffcbbe"/><path d="m118.101 62.647v16.665c-21.5 7.874-36.843 28.518-36.843 52.746v52.646h7.738c27.701 0 50.158-22.456 50.158-50.158v-33.692h23.554c20.581 0 37.266-16.685 37.266-37.266v-.941z" fill="#21386b"/><path d="m300.345 60.314 24.983-24.983c-23.554-23.554-61.743-23.554-85.297 0v-35.331c-33.311 0-60.314 27.004-60.314 60.314s27.004 60.314 60.314 60.314h120.629c-.001-33.31-27.004-60.314-60.315-60.314z" fill="#26457d"/><path d="m235.259 222.002h-22.612c-8.685 0-15.725 7.04-15.725 15.725 0 8.685 7.04 15.725 15.725 15.725h22.612c8.685 0 15.725-7.04 15.725-15.725 0-8.685-7.04-15.725-15.725-15.725z" fill="#ffcbbe"/><path d="m187.23 205.676h-25.991c-4.492 0-8.134-3.642-8.134-8.134s3.642-8.134 8.134-8.134h15.822c-2.915-5.446-8.66-9.158-15.257-9.158-4.492 0-8.134-3.642-8.134-8.134s3.642-8.134 8.134-8.134c18.506 0 33.561 15.055 33.561 33.56 0 4.492-3.642 8.134-8.135 8.134z" fill="#eaac9d"/><path d="m180.035 325.431c-2.776 0-5.551-1.059-7.669-3.177-4.235-4.235-4.235-11.103.001-15.338 2.754-2.754 4.27-6.416 4.27-10.31 0-3.895-1.517-7.556-4.27-10.31-4.235-4.235-4.236-11.102-.001-15.338 4.235-4.235 11.102-4.235 15.338 0 6.851 6.851 10.624 15.959 10.624 25.648 0 9.688-3.773 18.797-10.624 25.648-2.118 2.117-4.894 3.177-7.669 3.177z" fill="#ffcbbe"/><path d="m270.316 205.676h-22.446c-4.492 0-8.134-3.642-8.134-8.134 0-18.505 15.055-33.56 33.561-33.56 4.492 0 8.134 3.642 8.134 8.134s-3.642 8.134-8.134 8.134c-6.597 0-12.342 3.712-15.257 9.158h12.276c4.492 0 8.134 3.642 8.134 8.134s-3.642 8.134-8.134 8.134z" fill="#eaac9d"/><path d="m224.513 332.311c-10.158 0-18.393-8.235-18.393-18.393v-32.459c0-.741.044-1.471.129-2.189.135-1.139 5.442-2.167 5.775-3.094 2.339-6.496 4.247-8.012 12.489-8.012 3.787 0 7.307-3.954 10.233-1.992 4.921 3.301 8.161 8.915 8.161 15.287v32.459c-.001 10.158-8.236 18.393-18.394 18.393z" fill="#26457d"/><path d="m234.74 266.18v13.09h-28.49c.06-.5.14-.99.23-1.47.02-.1.04-.2.07-.3 1.81-8.25 9.16-14.43 17.96-14.43 3.78 0 7.3 1.14 10.23 3.11z" fill="#f9f6f6"/></g><path d="m361.195 261.463c-3.644 0-6.961-2.467-7.885-6.163-1.09-4.358 1.56-8.775 5.918-9.864l56.262-14.066c4.357-1.09 8.774 1.56 9.864 5.918s-1.56 8.775-5.918 9.864l-56.262 14.066c-.662.166-1.326.245-1.979.245z" fill="#e4f6ff"/><path d="m397.637 300.315c-.398 0-.8-.029-1.205-.089l-36.426-5.41c-4.444-.66-7.511-4.797-6.851-9.241.659-4.444 4.796-7.512 9.24-6.851l36.426 5.41c4.444.66 7.511 4.797 6.851 9.241-.599 4.038-4.071 6.94-8.035 6.94z" fill="#e4f6ff"/><circle cx="423.643" cy="88.357" fill="#78c2a4" r="88.357"/><circle cx="423.643" cy="88.357" fill="#f9f6f6" r="74.357"/><circle cx="423.643" cy="88.357" fill="#f9f6f6" r="74.357"/><path d="m439.105 161.097c-4.99 1.06-10.16 1.62-15.46 1.62-41 0-74.36-33.36-74.36-74.36s33.36-74.36 74.36-74.36c5.3 0 10.47.56 15.46 1.62-33.6 7.13-58.89 37.04-58.89 72.74s25.29 65.61 58.89 72.74z" fill="#dddaec"/><path d="m207.823 449.531 78.756-12.886c13.565-2.22 25.291-10.089 32.543-21.974 5.046-8.27 7.39-17.988 6.678-27.65-2.048-27.815-27.454-47.369-54.371-42.965l-136.442 22.325-8.074-49.344 136.442-22.325c52.736-8.628 102.658 27.255 111.286 79.99 4.231 25.853-1.985 51.807-17.495 72.966-15.189 20.72-38.186 34.343-63.54 38.492l-28.366 4.641c-27.251 4.459-52.958-14.018-57.417-41.27z" fill="#dd5790"/><path d="m339.85 410.812c-7.26 11.88-18.98 19.75-32.55 21.97l-14.21 2.33c10.78-3.37 19.97-10.5 26.03-20.44 5.05-8.27 7.39-17.98 6.68-27.65-2.05-27.81-27.45-47.37-54.37-42.96l20.72-3.87c26.92-4.4 52.33 15.15 54.37 42.97.721 9.66-1.629 19.38-6.67 27.65z" fill="#9d549b"/><g><g><path d="m90.425 368.729c9.856 15.677 30.555 20.396 46.232 10.539l13.809-8.682c15.677-9.856 20.396-30.555 10.539-46.232-9.856-15.677-30.555-20.396-46.232-10.539l-13.809 8.682c-15.677 9.856-20.395 30.555-10.539 46.232z" fill="#ffddce"/></g><g><path d="m107.828 368.729c4.686 7.461 11.822 12.432 19.703 14.541-13.843 3.734-29.074-1.76-37.106-14.541-9.855-15.675-5.138-36.369 10.537-46.232l13.812-8.682c5.542-3.489 11.711-5.146 17.816-5.146 2.949 0 5.883.389 8.714 1.15-3.148.84-6.224 2.172-9.126 3.996l-13.812 8.682c-15.676 9.863-20.393 30.557-10.538 46.232z" fill="#ffcbbe"/></g></g><path d="m417.573 135.076c-3.121-.269-6.03-1.806-8.015-4.303l-31.914-40.161c-3.952-4.972-3.124-12.207 1.849-16.158 4.973-3.952 12.208-3.123 16.158 1.849l21.148 26.613 28.495-51.961c3.054-5.569 10.043-7.607 15.613-4.554 5.569 3.054 7.607 10.044 4.553 15.613l-36.815 67.134c-1.852 3.377-5.27 5.602-9.107 5.929-.661.056-1.317.055-1.965-.001z" fill="#78c2a4"/></g></svg>