<svg id="Capa_1" enable-background="new 0 0 512 512" height="512" viewBox="0 0 512 512" width="512" xmlns="http://www.w3.org/2000/svg"><g><path d="m486.401 256c0 70.692-3.054 134.692-49.381 181.019s-110.328 74.981-181.02 74.981c-13.395 0-26.55-1.029-39.39-3.012-48.297-7.459-102.701-102.429-138.109-132.91-38.406-33.063-56.327-3.319-69.817-53.717-5.664-21.164-8.684-43.41-8.684-66.361 0-141.385 114.615-256 256-256 69.2 0 131.986 27.456 178.061 72.069 48.062 46.538 52.34 111.746 52.34 183.931z" fill="#9d66d5"/><path d="m382.184 216.086h75.819v128.693h-75.819z" fill="#21386b"/><path d="m340.783 404.637c-38.293 0-69.335-31.042-69.335-69.335v-109.739c0-38.293 31.042-69.335 69.335-69.335 38.293 0 69.335 31.042 69.335 69.335v109.739c-.001 38.293-31.043 69.335-69.335 69.335z" fill="#26457d"/><path d="m410.122 255.487v79.81c0 38.29-31.04 69.34-69.34 69.34-38.29 0-69.33-31.05-69.33-69.34v-79.81c0 38.29 31.04 69.34 69.33 69.34 38.3 0 69.34-31.05 69.34-69.34z" fill="#21386b"/><path d="m512 256c0 72.18-29.88 137.39-77.94 183.93v-38.286l13.468-130.689-13.468-130.688v-68.197c48.06 46.54 77.94 111.75 77.94 183.93z" fill="#98695e"/><path d="m434.06 401.644v-261.377c14.876 0 26.936 12.06 26.936 26.936v207.505c0 14.876-12.06 26.936-26.936 26.936z" fill="#f9f6f6"/><g fill="#e4f6ff"><path d="m205.304 193.784.856-1.482c3.018-5.228 9.569-7.226 14.991-4.572l16.678 8.162c5.974 2.923 8.222 10.295 4.897 16.055l-2.126 3.683c-3.325 5.76-10.833 7.498-16.352 3.787l-15.407-10.363c-5.01-3.37-6.555-10.042-3.537-15.27z"/><path d="m220.455 147.567v-1.712c0-6.037 4.674-11.042 10.697-11.455l18.525-1.271c6.635-.455 12.268 4.805 12.268 11.455v4.253c0 6.651-5.633 11.911-12.268 11.455l-18.525-1.271c-6.023-.411-10.697-5.417-10.697-11.454z"/><path d="m206.16 101.121-.856-1.482c-3.018-5.228-1.473-11.9 3.536-15.269l15.407-10.363c5.519-3.712 13.027-1.973 16.352 3.787l2.126 3.683c3.325 5.76 1.077 13.131-4.897 16.055l-16.678 8.162c-5.421 2.653-11.972.655-14.99-4.573z"/></g><g><path d="m139.619 103.193h-53.939c-7.985 0-14.459 6.473-14.459 14.459v101.658c0 7.985 6.473 14.459 14.459 14.459h53.939c7.985 0 14.459-6.473 14.459-14.459v-101.659c-.001-7.985-6.474-14.458-14.459-14.458z" fill="#f9f6f6"/><path d="m105.921 233.766h-20.242c-7.984 0-14.458-6.475-14.458-14.458v-101.657c0-7.988 6.475-14.458 14.458-14.458h20.242c-7.984 0-14.458 6.47-14.458 14.458v101.656c0 7.984 6.474 14.459 14.458 14.459z" fill="#dddaec"/><path d="m156.117 188.93h-86.936c-12.87 0-23.304 10.434-23.304 23.304v163.846c0 12.87 10.434 23.304 23.304 23.304h86.937c12.87 0 23.304-10.434 23.304-23.304v-163.846c-.001-12.871-10.434-23.304-23.305-23.304z" fill="#78c2a4"/><path d="m101.805 399.382h-32.625c-12.868 0-23.303-10.436-23.303-23.303v-163.845c0-12.875 10.436-23.303 23.303-23.303h32.625c-12.868 0-23.303 10.429-23.303 23.303v163.845c0 12.867 10.435 23.303 23.303 23.303z" fill="#66b394"/><path d="m216.61 257.09v251.9c-100.68-15.55-182-89.77-207.92-186.63v-65.27c0-20.04 16.25-36.28 36.28-36.28h135.35c20.04 0 36.29 16.24 36.29 36.28z" fill="#f9f6f6"/><path d="m95.77 220.81c-20.04 0-36.29 16.24-36.29 36.28v162.98c-23.48-28.1-41.05-61.3-50.79-97.71v-65.27c0-20.04 16.25-36.28 36.28-36.28z" fill="#dddaec"/><path d="m126.256 172.912c-7.214 0-13.063-5.848-13.063-13.063v-33.382c0-7.214 5.848-13.063 13.063-13.063 7.214 0 13.063 5.848 13.063 13.063v33.382c0 7.215-5.849 13.063-13.063 13.063z" fill="#21386b"/></g></g></svg>