<svg id="Capa_1" enable-background="new 0 0 512 512" height="512" viewBox="0 0 512 512" width="512" xmlns="http://www.w3.org/2000/svg"><g><path d="m25.88 368.27c-16.58-33.9-25.88-72-25.88-112.27s9.3-78.37 25.88-112.27c3.67-7.54 7.72-14.86 12.1-21.96 45.08-73.07 125.86-121.77 218.02-121.77s172.94 48.7 218.02 121.77c4.38 7.1 8.43 14.42 12.1 21.96 16.58 33.9 25.88 72 25.88 112.27s-9.3 78.37-25.88 112.27" fill="#80b4fb"/><path d="m486.12 121.77v246.5c-15.475 31.668-37.295 59.669-63.804 82.347-4.434 3.794-9-7.773-13.689-4.285-3.455 2.57-6.977 20.266-10.564 22.663-40.646 27.166-89.505 43.005-142.063 43.005-50.404 0-97.406-14.568-137.025-39.723-4.124-2.618-8.168-19.999-12.127-22.842-4.139-2.972-8.186 8.582-12.136 5.374-28.784-23.382-52.39-52.89-68.833-86.539v-246.5z" fill="#f9f6f6"/><path d="m25.882 121.771h460.237v62.97h-460.237z" fill="#dddaec"/><path d="m51.15 121.77v287.76c-9.67-12.87-18.14-26.67-25.27-41.26v-246.5z" fill="#dddaec"/><path d="m490.584 168.327h-469.168c-11.828 0-21.416-9.588-21.416-21.416v-19.685c0-11.828 9.588-21.416 21.416-21.416h469.167c11.828 0 21.416 9.588 21.416 21.416v19.685c.001 11.828-9.587 21.416-21.415 21.416z" fill="#26457d"/><path d="m52.305 11.368h187.015c21.453 0 38.844 17.391 38.844 38.844v65.97c0 21.453-17.391 38.844-38.844 38.844h-187.015c-21.453 0-38.844-17.391-38.844-38.844v-65.97c0-21.453 17.391-38.844 38.844-38.844z" fill="#dd5790"/><path d="m73.261 155.022h-20.95c-21.45 0-38.85-17.39-38.85-38.84v-65.97c0-21.45 17.4-38.84 38.85-38.84h20.95c-21.45 0-38.85 17.39-38.85 38.84v65.97c0 21.449 17.4 38.84 38.85 38.84z" fill="#9d549b"/><g fill="#ffe07d"><path d="m152.448 53.388c-.025-.068-.053-.137-.08-.204-1.357-3.301-4.539-5.433-8.107-5.433-.003 0-.006 0-.009 0-3.572.003-6.754 2.142-8.106 5.448-.022.056-.045.113-.066.169l-20.985 55.1c-1.475 3.871.469 8.204 4.34 9.678 3.865 1.475 8.203-.468 9.678-4.339l3.387-8.892h23.364l3.348 8.871c1.133 3.003 3.987 4.854 7.018 4.854.88 0 1.775-.156 2.647-.485 3.875-1.463 5.831-5.79 4.368-9.665zm-14.237 36.527 6.022-15.813 5.968 15.813z"/><path d="m98.675 54.765c-.794-3.897-4.121-6.775-8.093-7-3.971-.226-7.601 2.261-8.828 6.045-.028.085-.055.171-.079.258l-9.525 33.413-9.88-33.488c-.026-.089-.054-.177-.083-.265-1.267-3.772-4.921-6.211-8.894-5.954-3.97.266-7.268 3.181-8.034 7.172l-9.822 54.423c-.735 4.076 1.973 7.977 6.049 8.713 4.071.735 7.978-1.972 8.713-6.049l5.145-28.509 8.52 28.875c.026.089.055.178.084.267 1.202 3.577 4.535 5.972 8.306 5.972h.048c3.789-.021 7.12-2.456 8.288-6.061.027-.085.054-.17.078-.256l8.224-28.849 5.474 28.637c.777 4.069 4.707 6.738 8.774 5.959 4.068-.777 6.736-4.706 5.958-8.774z"/><path d="m208.704 103.591c-.015 0-.028 0-.043 0-3.669.021-8.259.039-12.027.045v-48.385c0-4.142-3.357-7.5-7.5-7.5s-7.5 3.358-7.5 7.5v55.84c0 3.652 2.631 6.774 6.231 7.392.534.091.924.159 7.185.159 2.998 0 7.344-.016 13.695-.051 4.142-.023 7.481-3.4 7.458-7.542-.023-4.128-3.376-7.458-7.499-7.458z"/><path d="m248.81 103.591c-.015 0-.028 0-.043 0-3.669.021-8.259.039-12.027.045v-48.385c0-4.142-3.357-7.5-7.5-7.5s-7.5 3.358-7.5 7.5v55.84c0 3.652 2.631 6.774 6.231 7.392.534.091.924.159 7.185.159 2.998 0 7.344-.016 13.695-.051 4.142-.023 7.481-3.4 7.458-7.542-.023-4.128-3.375-7.458-7.499-7.458z"/></g><path d="m336.31 344.78v154.36c-4.61 1.53-9.28 2.92-14 4.18-11.195 3.001-22.693-21.534-34.438-20.076-8.177 1.015-16.474 28.435-24.873 28.656-2.33.07-4.66.1-7 .1s-4.68-.03-7-.1c-6.679-.176-13.293-19.995-19.833-20.675-13.503-1.404-26.69 15.525-39.477 12.095-4.72-1.26-9.39-2.65-14-4.18v-154.36c0-7.64 6.2-13.84 13.84-13.84h132.94c7.641 0 13.841 6.2 13.841 13.84z" fill="#26457d"/><g fill="#80b4fb"><path d="m249 358.1v153.8c-20.47-.54-40.33-3.49-59.31-8.58v-145.22c0-7.27 5.89-13.16 13.16-13.16h32.99c7.27 0 13.16 5.89 13.16 13.16z"/><path d="m322.31 358.1v145.22c-18.99 5.09-38.85 8.04-59.31 8.58v-153.8c0-7.27 5.89-13.16 13.16-13.16h32.99c7.27 0 13.16 5.89 13.16 13.16z"/></g><g><circle cx="423.643" cy="88.357" fill="#dd5790" r="88.357"/><circle cx="423.643" cy="88.357" fill="#f9f6f6" r="74.357"/><circle cx="423.643" cy="88.357" fill="#f9f6f6" r="74.357"/><path d="m439.105 161.097c-4.99 1.06-10.16 1.62-15.46 1.62-41 0-74.36-33.36-74.36-74.36s33.36-74.36 74.36-74.36c5.3 0 10.47.56 15.46 1.62-33.6 7.13-58.89 37.04-58.89 72.74s25.29 65.61 58.89 72.74z" fill="#dddaec"/><g fill="#dd5790"><path d="m384.436 127.564c-4.972-4.972-4.972-13.034 0-18.006l60.407-60.407c4.972-4.972 13.034-4.972 18.006 0 4.972 4.972 4.972 13.034 0 18.006l-60.407 60.407c-4.972 4.972-13.034 4.972-18.006 0z"/><path d="m384.436 49.151c4.972-4.972 13.034-4.972 18.006 0l60.407 60.407c4.972 4.972 4.972 13.034 0 18.006-4.972 4.972-13.034 4.972-18.006 0l-60.407-60.407c-4.972-4.972-4.972-13.034 0-18.006z"/></g></g><g><path d="m422.31 378.17v72.44c-3.94 3.38-7.99 6.63-12.13 9.75-3.95 3-7.99 5.88-12.12 8.63v-90.82z" fill="#98695e"/><path d="m410.18 378.17v82.19c-3.95 3-7.99 5.88-12.12 8.63v-90.82z" fill="#664545"/><path d="m410.183 406.427c-25.896 0-46.888-20.993-46.888-46.888v-84.466c0-25.896 20.993-46.888 46.888-46.888 25.896 0 46.888 20.993 46.888 46.888v84.466c0 25.895-20.992 46.888-46.888 46.888z" fill="#78c2a4"/><path d="m423.725 404.438c-4.29 1.3-8.83 1.99-13.54 1.99-25.9 0-46.89-21-46.89-46.89v-84.47c0-25.89 20.99-46.89 46.89-46.89 4.71 0 9.25.69 13.54 1.99-19.28 5.81-33.33 23.72-33.33 44.9v84.47c0 21.18 14.05 39.09 33.33 44.9z" fill="#66b394"/></g><g><path d="m118.98 378.17v94.1c-4.13-2.61-8.17-5.35-12.13-8.19-4.14-2.97-8.18-6.06-12.13-9.28v-76.63z" fill="#98695e"/><path d="m106.85 378.17v85.91c-4.14-2.97-8.18-6.06-12.13-9.28v-76.63z" fill="#664545"/><path d="m106.852 406.427c-25.896 0-46.888-20.993-46.888-46.888v-84.466c0-25.896 20.993-46.888 46.888-46.888 25.896 0 46.888 20.993 46.888 46.888v84.466c0 25.895-20.992 46.888-46.888 46.888z" fill="#78c2a4"/><path d="m120.394 404.438c-4.29 1.3-8.83 1.99-13.54 1.99-25.9 0-46.89-21-46.89-46.89v-84.47c0-25.89 20.99-46.89 46.89-46.89 4.71 0 9.25.69 13.54 1.99-19.28 5.81-33.33 23.72-33.33 44.9v84.47c0 21.18 14.05 39.09 33.33 44.9z" fill="#66b394"/></g><path d="m327.188 238.161h-142.376c-8.343 0-15.107-6.763-15.107-15.107v-1.711c0-8.343 6.763-15.107 15.107-15.107h142.376c8.343 0 15.107 6.763 15.107 15.107v1.711c-.001 8.343-6.764 15.107-15.107 15.107z" fill="#80b4fb"/></g></svg>