<svg id="Capa_1" enable-background="new 0 0 512 512" height="512" viewBox="0 0 512 512" width="512" xmlns="http://www.w3.org/2000/svg"><g><path d="m512 256c0 67.61-26.22 129.1-69.02 174.86-19.57 20.92-42.61 9.354-68.2 22.775-1.81.95-3.64 1.88-5.48 2.79-9.7 4.79-19.75 8.99-30.1 12.55-13.64 4.68-27.79 8.25-42.35 10.58-4.16.67-8.35 1.24-12.58 1.7-9.04 1-18.24 1.52-27.54 1.55-31.42-.06-51.531-5.141-79.321-15.561-3.81-1.43-7.57-2.94-11.29-4.55-5.94-2.55-11.77-5.33-17.47-8.31-4.41-2.3-8.75-4.73-13.01-7.29-24.34-14.6-46.06-33.15-64.25-54.74-11.52-13.64-32.799.067-41.289-15.793-19.21-35.931-30.1-76.971-30.1-120.561 0-141.38 114.62-256 256-256s256 114.62 256 256z" fill="#e4f6ff"/><path d="m296.85 374.17v118.628c-13.3 1.886-26.95 2.865-40.85 2.865-48.1 0-93.1-11.697-131.55-32.041v-89.452z" fill="#26457d"/><g><path d="m416.181 200.767h-22.021c-37.363 0-67.651 30.288-67.651 67.651v65.644c0 37.363 30.288 67.651 67.651 67.651h22.021c37.363 0 67.651-30.288 67.651-67.651v-65.644c0-37.363-30.288-67.651-67.651-67.651z" fill="#ffe07d"/><path d="m426.732 400.884c-3.44.549-6.967.824-10.55.824h-22.022c-37.364 0-67.651-30.287-67.651-67.651v-65.64c0-37.364 30.287-67.651 67.651-67.651h22.023c3.583 0 7.11.275 10.55.824-24.352 3.802-44.397 20.605-52.815 43.089-2.769 7.385-4.286 15.385-4.286 23.737v65.64c-.001 33.783 24.747 61.773 57.1 66.828z" fill="#ffc250"/><path d="m442.98 430.86c-19.574 20.916-42.611 38.546-68.199 51.972-11.382 5.972-23.269-2.481-35.581 1.746v-15.488c0-24.98 20.25-45.24 45.24-45.24h34.35c8.9 0 17.19 2.57 24.19 7.01z" fill="#ffe07d"/><path d="m414.55 423.85c-24.99 0-45.25 20.25-45.25 45.24v16.53c-9.7 4.79-19.75 8.99-30.1 12.55v-29.08c0-24.99 20.25-45.24 45.24-45.24z" fill="#ffc250"/><path d="m421.883 373.336v53.603c0 5.655-2.293 10.773-5.999 14.472-3.699 3.706-8.817 5.999-14.472 5.999-3.983 0-7.701-1.135-10.839-3.108-5.782-3.615-9.632-10.042-9.632-17.363v-53.603z" fill="#ffddce"/><g fill="#ffcbbe"><path d="m421.883 373.336v51.087c-2.788.392-5.631.591-8.527.591-11.895 0-23.006-3.38-32.414-9.234v-42.444z"/><path d="m390.573 394.145v50.157c-5.782-3.615-9.632-10.042-9.632-17.363v-32.794z"/><path d="m478.755 337.68h-136.026c-8.806 0-15.946-7.139-15.946-15.946 0-8.806 7.139-15.946 15.946-15.946h136.025c8.806 0 15.946 7.139 15.946 15.946 0 8.807-7.139 15.946-15.945 15.946z"/></g><path d="m342.73 328.547c-3.756 0-6.812-3.056-6.812-6.812s3.056-6.812 6.812-6.812h136.025c3.756 0 6.812 3.056 6.812 6.812s-3.056 6.812-6.812 6.812z" fill="#eaac9d"/><path d="m474.864 310.669v43.606c0 28.726-19.704 52.859-46.332 59.618-.022.011-.044.011-.066.022-4.836 1.22-9.902 1.868-15.11 1.868-33.968 0-61.508-27.54-61.508-61.508v-43.606c0-33.968 27.54-61.508 61.508-61.508.11 0 .231 0 .34.011 5.11.022 10.088.67 14.836 1.879.264.066.527.132.78.209 10.572 2.824 20.022 8.407 27.539 15.913 11.134 11.132 18.013 26.506 18.013 43.496z" fill="#ffddce"/><path d="m428.533 413.892c-.022.011-.044.011-.066.022-4.836 1.22-9.902 1.868-15.11 1.868-33.968 0-61.508-27.54-61.508-61.508v-43.606c0-33.968 27.54-61.508 61.508-61.508 5.231 0 10.319.659 15.176 1.89-26.627 6.758-46.331 30.88-46.331 59.618v43.606c-.001 28.738 19.703 52.871 46.331 59.618z" fill="#ffcbbe"/><path d="m397.426 322.06c-4.313 0-7.81-3.497-7.81-7.81v-16.271c0-4.313 3.497-7.81 7.81-7.81 4.313 0 7.81 3.497 7.81 7.81v16.271c0 4.313-3.497 7.81-7.81 7.81z" fill="#21386b"/><path d="m445.588 322.06c-4.313 0-7.81-3.497-7.81-7.81v-16.271c0-4.313 3.497-7.81 7.81-7.81 4.313 0 7.81 3.497 7.81 7.81v16.271c0 4.313-3.497 7.81-7.81 7.81z" fill="#21386b"/><path d="m429.313 251.26v86.75h-15.616v-88.838c5.11.022 10.088.67 14.836 1.879.263.066.527.132.78.209z" fill="#ffcbbe"/><path d="m420.84 379.371h-16.271c-3.333 0-6.035-2.702-6.035-6.035s2.702-6.035 6.035-6.035h16.271c3.333 0 6.035 2.702 6.035 6.035s-2.702 6.035-6.035 6.035z" fill="#ffcbbe"/><path d="m430.861 326.544h-12.583c-4.833 0-8.75 3.918-8.75 8.75 0 4.833 3.918 8.75 8.75 8.75h12.583c4.833 0 8.75-3.918 8.75-8.75 0-4.833-3.917-8.75-8.75-8.75z" fill="#ffcbbe"/><path d="m425.412 281.708h-67.231v-37.032h96.477v7.786c0 16.152-13.094 29.246-29.246 29.246z" fill="#ffe07d"/><path d="m359.983 335.793c-4.387 0-7.942-3.556-7.942-7.942v-61.608h15.885v61.608c0 4.386-3.556 7.942-7.943 7.942z" fill="#ffc250"/><path d="m373.917 244.684c-2.769 7.385-4.286 15.385-4.286 23.737v13.286l-17.591 4.873 1.145-52.258z" fill="#ffc250"/></g><g><path d="m392.742 264.387v-82.474c0-39.98-32.41-72.391-72.391-72.391-39.98 0-72.391 32.41-72.391 72.391v81.51c-8.368.9-14.884 7.983-14.884 16.59 0 9.217 7.472 16.688 16.688 16.688h137.114c9.217 0 16.688-7.472 16.688-16.688.001-7.153-4.5-13.252-10.824-15.626z" fill="#26457d"/><path d="m292.391 280.009c0 4.611 1.865 8.782 4.883 11.807 3.018 3.018 7.195 4.883 11.8 4.883h-59.309c-4.605 0-8.782-1.865-11.8-4.883-3.018-3.025-4.89-7.195-4.89-11.807 0-8.606 6.517-15.686 14.886-16.588v-81.508c0-19.992 8.104-38.086 21.206-51.188 13.095-13.102 31.195-21.206 51.188-21.206 5.703 0 11.251.658 16.574 1.906-13.333 3.126-25.248 9.935-34.613 19.301-13.102 13.102-21.206 31.195-21.206 51.188v81.508c-8.363.901 11.281 7.981 11.281 16.587z" fill="#21386b"/><path d="m374.78 365.67v117.16c-11.38 5.97-23.27 11.11-35.58 15.34-13.64 4.68-27.79 8.25-42.35 10.58-13.3 2.14-26.95 3.25-40.85 3.25h-.49v-146.33c0-23.88 19.36-43.23 43.23-43.23h32.81c23.87 0 43.23 19.35 43.23 43.23z" fill="#78c2a4"/><path d="m327.5 322.44c-23.87 0-43.23 19.35-43.23 43.23v144.78c-9.28 1.03-18.72 1.55-28.27 1.55h-.49v-146.33c0-23.88 19.35-43.23 43.23-43.23z" fill="#66b394"/><path d="m334.511 274.178v51.213c0 5.403-2.191 10.292-5.731 13.827-3.534 3.54-8.424 5.731-13.827 5.731-3.806 0-7.357-1.084-10.356-2.969-5.524-3.454-9.202-9.595-9.202-16.589v-51.213z" fill="#ffddce"/><g fill="#ffcbbe"><path d="m334.511 274.178v48.809c-2.664.375-5.38.565-8.147.565-11.365 0-21.98-3.229-30.969-8.822v-40.552z"/><path d="m304.597 294.059v47.921c-5.524-3.454-9.202-9.595-9.202-16.589v-31.332z"/><path d="m388.847 240.112h-129.96c-8.414 0-15.235-6.821-15.235-15.235 0-8.414 6.821-15.235 15.235-15.235h129.96c8.414 0 15.235 6.821 15.235 15.235-.001 8.415-6.822 15.235-15.235 15.235z"/></g><path d="m258.887 231.386c-3.589 0-6.508-2.92-6.508-6.508 0-3.589 2.92-6.508 6.508-6.508h129.96c3.589 0 6.508 2.92 6.508 6.508 0 3.589-2.92 6.508-6.508 6.508z" fill="#eaac9d"/><path d="m385.126 198.963v57.006c0 32.45-26.306 58.763-58.763 58.763-32.45 0-58.763-26.313-58.763-58.763v-57.006c0-3.113.244-6.171.712-9.155h48.597c3.398 0 6.68-.495 9.779-1.424 5.758-1.709 10.885-4.896 14.926-9.121 3.025-3.147 5.452-6.87 7.1-10.986 5.059 12.614 17.388 21.532 31.813 21.532h3.886c.468 2.982.713 6.041.713 9.154z" fill="#ffddce"/><path d="m341.248 312.826c-4.754 1.248-9.745 1.906-14.886 1.906-32.45 0-58.763-26.313-58.763-58.763v-57.006c0-3.113.244-6.171.712-9.155h29.765c-.468 2.984-.712 6.042-.712 9.155v57.006c0 27.31 18.636 50.272 43.884 56.857z" fill="#ffcbbe"/><path d="m341.615 179.262v61.163h-14.926v-52.042c5.757-1.709 10.884-4.896 14.926-9.121z" fill="#ffcbbe"/><path d="m343.089 229.472h-12.022c-4.617 0-8.36 3.743-8.36 8.36 0 4.617 3.743 8.36 8.36 8.36h12.022c4.617 0 8.36-3.743 8.36-8.36 0-4.617-3.743-8.36-8.36-8.36z" fill="#ffcbbe"/><path d="m301.647 208.09c-3.988 0-7.975-1.518-11.011-4.554-1.854-1.854-1.854-4.86 0-6.713 1.854-1.854 4.86-1.854 6.713 0 2.37 2.37 6.225 2.37 8.595 0 1.854-1.854 4.86-1.854 6.713 0 1.854 1.854 1.854 4.86 0 6.713-3.035 3.036-7.023 4.554-11.01 4.554z" fill="#26457d"/><path d="m366.432 208.09c-3.987 0-7.975-1.518-11.011-4.553-1.854-1.854-1.854-4.86 0-6.713 1.854-1.854 4.859-1.854 6.713 0 2.37 2.37 6.226 2.37 8.595 0 1.854-1.854 4.86-1.854 6.713 0 1.854 1.854 1.854 4.86 0 6.713-3.035 3.035-7.023 4.553-11.01 4.553z" fill="#26457d"/><path d="m352.778 265.819c-9.984 9.984-26.229 9.984-36.213 0-1.721-1.721-1.721-4.512 0-6.234 1.721-1.721 4.512-1.721 6.234 0 6.547 6.547 17.199 6.547 23.745 0 1.721-1.721 4.512-1.721 6.234 0 1.722 1.722 1.722 4.513 0 6.234z" fill="#ffcbbe"/><path d="m311.144 225.189c-4.121 0-7.462-3.341-7.462-7.462v-15.545c0-4.121 3.341-7.462 7.462-7.462 4.121 0 7.462 3.341 7.462 7.462v15.545c-.001 4.121-3.341 7.462-7.462 7.462z" fill="#21386b"/><path d="m357.158 225.189c-4.121 0-7.462-3.341-7.462-7.462v-15.545c0-4.121 3.341-7.462 7.462-7.462 4.121 0 7.462 3.341 7.462 7.462v15.545c0 4.121-3.341 7.462-7.462 7.462z" fill="#21386b"/></g><g><path d="m227.061 170.327v53.603c0 5.655-2.293 10.773-5.999 14.472-3.699 3.706-8.817 5.999-14.472 5.999-3.983 0-7.701-1.135-10.839-3.108-5.782-3.615-9.632-10.042-9.632-17.363v-53.603z" fill="#ffddce"/><path d="m227.061 170.327v51.087c-2.788.392-5.631.591-8.528.591-11.895 0-23.006-3.38-32.414-9.234v-42.444z" fill="#ffcbbe"/><path d="m195.751 191.136v50.157c-5.782-3.615-9.632-10.042-9.632-17.363v-32.794z" fill="#ffcbbe"/><path d="m193.716 27.039c-22.017 0-40.443 15.323-45.228 35.884l-10.907-10.907c-7.772 7.772-9.329 19.398-4.686 28.722h-13.156c0 13.761 11.156 24.917 24.917 24.917.882 0 1.753-.047 2.611-.137v4.406h76.061v-82.885z" fill="#21386b"/><path d="m149.839 112.978c-9.731 9.731-9.731 25.507 0 35.237 9.731 9.731 25.507 9.731 35.237 0" fill="#26457d"/><path d="m283.932 134.671h-136.025c-8.806 0-15.946-7.139-15.946-15.946 0-8.806 7.139-15.946 15.946-15.946h136.025c8.806 0 15.946 7.139 15.946 15.946 0 8.807-7.139 15.946-15.946 15.946z" fill="#ffcbbe"/><path d="m147.907 125.538c-3.756 0-6.812-3.056-6.812-6.812s3.056-6.812 6.812-6.812h136.025c3.756 0 6.812 3.056 6.812 6.812s-3.056 6.812-6.812 6.812z" fill="#eaac9d"/><path d="m218.533 212.772c-33.968 0-61.504-27.536-61.504-61.504v-43.606c0-33.968 27.536-61.504 61.504-61.504h34.277c15.037 0 27.227 12.19 27.227 27.227v77.883c0 33.968-27.536 61.504-61.504 61.504z" fill="#ffddce"/><path d="m233.711 210.883c-4.854 1.233-9.936 1.885-15.175 1.885-33.97 0-61.507-27.531-61.507-61.501v-43.606c0-33.97 27.537-61.507 61.507-61.507h30.343c-33.963 0-61.501 27.537-61.501 61.507v43.606c0 28.739 19.702 52.864 46.333 59.616z" fill="#ffcbbe"/><path d="m202.603 119.051c-4.313 0-7.81-3.497-7.81-7.81v-16.271c0-4.313 3.497-7.81 7.81-7.81 4.313 0 7.81 3.497 7.81 7.81v16.271c0 4.314-3.497 7.81-7.81 7.81z" fill="#21386b"/><path d="m250.765 119.051c-4.313 0-7.81-3.497-7.81-7.81v-16.271c0-4.313 3.497-7.81 7.81-7.81 4.313 0 7.81 3.497 7.81 7.81v16.271c0 4.314-3.497 7.81-7.81 7.81z" fill="#21386b"/><path d="m234.494 134.997h-15.62v-81.03c0-4.313 3.497-7.81 7.81-7.81 4.313 0 7.81 3.497 7.81 7.81z" fill="#ffcbbe"/><path d="m226.018 176.362h-16.271c-3.333 0-6.035-2.702-6.035-6.035s2.702-6.035 6.035-6.035h16.271c3.333 0 6.035 2.702 6.035 6.035s-2.702 6.035-6.035 6.035z" fill="#ffcbbe"/><path d="m173.628 34.861v9.273c-11.964 4.382-20.501 15.869-20.501 29.351v29.295h4.306c15.415 0 27.911-12.496 27.911-27.911v-18.748h13.107c11.453 0 20.737-9.284 20.737-20.737v-.524h-45.56z" fill="#21386b"/><path d="m275.039 33.562 13.902-13.902c-13.107-13.107-34.357-13.107-47.464 0v-19.66c-18.536 0-33.562 15.026-33.562 33.562s15.026 33.562 33.562 33.562h67.125c-.001-18.535-15.027-33.562-33.563-33.562z" fill="#26457d"/><path d="m236.039 123.535h-12.583c-4.833 0-8.75 3.918-8.75 8.75 0 4.833 3.918 8.75 8.75 8.75h12.583c4.833 0 8.75-3.918 8.75-8.75 0-4.833-3.918-8.75-8.75-8.75z" fill="#ffcbbe"/></g><g><path d="m107.082 55.213h-22.021c-37.363 0-67.651 30.288-67.651 67.651v65.644c0 37.363 30.288 67.651 67.651 67.651h22.021c37.363 0 67.651-30.288 67.651-67.651v-65.644c0-37.363-30.288-67.651-67.651-67.651z" fill="#98695e"/><path d="m117.633 255.33c-3.44.549-6.967.824-10.55.824h-22.022c-37.364 0-67.651-30.287-67.651-67.651v-65.64c0-37.364 30.287-67.651 67.651-67.651h22.023c3.583 0 7.11.275 10.55.824-24.352 3.802-44.397 20.605-52.815 43.089-2.769 7.385-4.286 15.385-4.286 23.737v65.64c-.001 33.783 24.747 61.773 57.1 66.828z" fill="#664545"/><path d="m154.93 323.54v152.17c-5.94-2.55-11.77 10.21-17.47 7.23-4.41-2.3-8.75-4.73-13.01-7.29-39.72-23.83-72.44-58.14-94.35-99.09v-53.02c0-24.99 20.26-45.24 45.24-45.24h34.35c24.98 0 45.24 20.25 45.24 45.24z" fill="#ffe07d"/><path d="m105.45 278.29c-24.99 0-45.25 20.26-45.25 45.25v97.37c-11.52-13.64-21.61-28.49-30.1-44.35v-53.02c0-24.99 20.25-45.25 45.24-45.25z" fill="#ffc250"/><path d="m112.784 227.782v53.603c0 5.655-2.293 10.773-5.999 14.472-3.699 3.706-8.817 5.999-14.472 5.999-3.983 0-7.701-1.135-10.839-3.108-5.782-3.615-9.632-10.042-9.632-17.363v-53.603z" fill="#ffddce"/><g fill="#ffcbbe"><path d="m112.784 227.782v51.087c-2.788.392-5.631.591-8.528.591-11.895 0-23.006-3.38-32.414-9.234v-42.444z"/><path d="m81.474 248.591v50.157c-5.782-3.615-9.632-10.042-9.632-17.363v-32.794z"/><path d="m169.656 192.126h-136.026c-8.806 0-15.946-7.139-15.946-15.946 0-8.806 7.139-15.946 15.946-15.946h136.025c8.806 0 15.946 7.139 15.946 15.946 0 8.807-7.139 15.946-15.945 15.946z"/></g><path d="m33.63 182.993c-3.756 0-6.812-3.056-6.812-6.812s3.056-6.812 6.812-6.812h136.025c3.756 0 6.812 3.056 6.812 6.812s-3.056 6.812-6.812 6.812z" fill="#eaac9d"/><path d="m165.765 165.115v43.606c0 28.726-19.704 52.859-46.332 59.618-.022.011-.044.011-.066.022-4.836 1.22-9.902 1.868-15.11 1.868-33.968 0-61.508-27.54-61.508-61.508v-43.606c0-33.968 27.54-61.508 61.508-61.508.11 0 .231 0 .34.011 5.11.022 10.088.67 14.836 1.879.264.066.527.132.78.209 10.572 2.824 20.022 8.407 27.539 15.913 11.133 11.132 18.013 26.506 18.013 43.496z" fill="#ffddce"/><path d="m119.433 268.338c-.022.011-.044.011-.066.022-4.836 1.22-9.902 1.868-15.11 1.868-33.968 0-61.508-27.54-61.508-61.508v-43.606c0-33.968 27.54-61.508 61.508-61.508 5.231 0 10.319.659 15.176 1.89-26.627 6.758-46.331 30.88-46.331 59.618v43.606c0 28.738 19.704 52.871 46.331 59.618z" fill="#ffcbbe"/><path d="m88.326 176.506c-4.313 0-7.81-3.497-7.81-7.81v-16.271c0-4.313 3.497-7.81 7.81-7.81 4.313 0 7.81 3.497 7.81 7.81v16.271c0 4.314-3.496 7.81-7.81 7.81z" fill="#21386b"/><path d="m136.488 176.506c-4.313 0-7.81-3.497-7.81-7.81v-16.271c0-4.313 3.497-7.81 7.81-7.81 4.313 0 7.81 3.497 7.81 7.81v16.271c0 4.314-3.496 7.81-7.81 7.81z" fill="#21386b"/><path d="m120.214 105.706v86.75h-15.616v-88.838c5.11.022 10.088.67 14.836 1.879.263.066.527.132.78.209z" fill="#ffcbbe"/><path d="m121.762 180.99h-12.583c-4.833 0-8.75 3.918-8.75 8.75 0 4.833 3.918 8.75 8.75 8.75h12.583c4.833 0 8.75-3.918 8.75-8.75 0-4.833-3.917-8.75-8.75-8.75z" fill="#ffcbbe"/><path d="m116.312 136.154h-67.231v-37.032h96.477v7.786c0 16.152-13.094 29.246-29.246 29.246z" fill="#98695e"/><path d="m50.884 190.239c-4.387 0-7.942-3.556-7.942-7.942v-61.608h15.885v61.608c0 4.386-3.556 7.942-7.943 7.942z" fill="#664545"/><path d="m64.818 99.13c-2.769 7.385-4.286 15.385-4.286 23.737v13.286l-17.591 4.873 1.145-52.258z" fill="#664545"/><path d="m128.298 220.124c-9.984 9.984-26.229 9.984-36.213 0-1.721-1.721-1.721-4.512 0-6.234s4.512-1.721 6.234 0c6.547 6.547 17.199 6.547 23.745 0 1.721-1.721 4.512-1.721 6.234 0s1.722 4.512 0 6.234z" fill="#ffcbbe"/></g><g><path d="m199.766 203.859c-47.026 0-85.148 38.122-85.148 85.148v72.876c0 29.799 24.157 53.957 53.957 53.957h62.383c29.799 0 53.957-24.157 53.957-53.957v-72.876c-.001-47.026-38.123-85.148-85.149-85.148z" fill="#9d66d5"/><path d="m217.896 415.836h-49.32c-29.803 0-53.958-24.155-53.958-53.958v-72.871c0-47.024 38.122-85.146 85.146-85.146 8.583 0 16.869 1.264 24.671 3.627-35.001 10.572-60.486 43.067-60.486 81.519v72.871c0 29.803 24.155 53.958 53.947 53.958z" fill="#734a9b"/><path d="m256.73 465.22v46.78h-1.22c-42.6-.08-82.74-10.57-118.05-29.06v-17.72c0-23.87 19.36-43.22 43.23-43.22h32.81c23.87 0 43.23 19.35 43.23 43.22z" fill="#dd5790"/><path d="m209.45 421.99c-23.87 0-43.23 19.35-43.23 43.23v30.58c-9.89-3.71-19.49-8.01-28.76-12.86v-17.72c0-23.88 19.35-43.23 43.23-43.23z" fill="#9d549b"/><path d="m216.46 373.734v51.213c0 5.403-2.191 10.292-5.731 13.827-3.534 3.54-8.424 5.731-13.827 5.731-3.806 0-7.357-1.084-10.356-2.969-5.524-3.454-9.202-9.595-9.202-16.589v-51.213z" fill="#ffddce"/><g fill="#ffcbbe"><path d="m216.46 373.734v48.809c-2.664.375-5.38.565-8.147.565-11.365 0-21.98-3.229-30.969-8.822v-40.552z"/><path d="m186.547 393.615v47.921c-5.524-3.454-9.202-9.595-9.202-16.589v-31.332z"/><path d="m270.796 339.669h-129.96c-8.414 0-15.235-6.821-15.235-15.235 0-8.414 6.821-15.235 15.235-15.235h129.96c8.414 0 15.235 6.821 15.235 15.235 0 8.414-6.821 15.235-15.235 15.235z"/></g><path d="m140.836 330.942c-3.589 0-6.508-2.92-6.508-6.508 0-3.589 2.92-6.508 6.508-6.508h129.96c3.589 0 6.508 2.92 6.508 6.508 0 3.589-2.92 6.508-6.508 6.508z" fill="#eaac9d"/><path d="m267.075 298.519v57.006c0 32.45-26.306 58.763-58.763 58.763-32.45 0-58.763-26.313-58.763-58.763v-57.006c0-3.113.244-6.171.712-9.155h48.597c3.398 0 6.68-.495 9.779-1.424 5.758-1.709 10.885-4.896 14.926-9.121 3.025-3.147 5.452-6.87 7.1-10.986 5.059 12.614 17.388 21.532 31.813 21.532h3.886c.469 2.983.713 6.041.713 9.154z" fill="#ffddce"/><path d="m223.198 412.382c-4.754 1.248-9.745 1.906-14.886 1.906-32.45 0-58.763-26.313-58.763-58.763v-57.006c0-3.113.244-6.171.712-9.155h29.765c-.468 2.984-.712 6.042-.712 9.155v57.006c0 27.31 18.636 50.272 43.884 56.857z" fill="#ffcbbe"/><path d="m223.564 278.818v61.163h-14.926v-52.042c5.757-1.709 10.884-4.896 14.926-9.121z" fill="#ffcbbe"/><path d="m225.038 329.029h-12.022c-4.617 0-8.36 3.743-8.36 8.36 0 4.617 3.743 8.36 8.36 8.36h12.022c4.617 0 8.36-3.743 8.36-8.36 0-4.618-3.743-8.36-8.36-8.36z" fill="#ffcbbe"/><path d="m183.596 307.647c-3.988 0-7.975-1.518-11.011-4.554-1.854-1.854-1.854-4.86 0-6.713 1.854-1.854 4.86-1.854 6.713 0 2.37 2.37 6.225 2.37 8.595 0 1.854-1.854 4.86-1.854 6.713 0 1.854 1.854 1.854 4.86 0 6.713-3.034 3.035-7.023 4.554-11.01 4.554z" fill="#734a9b"/><path d="m248.382 307.647c-3.988 0-7.975-1.518-11.011-4.553-1.854-1.854-1.854-4.86 0-6.713 1.854-1.854 4.859-1.854 6.713 0 2.37 2.37 6.226 2.37 8.595 0 1.854-1.854 4.86-1.854 6.713 0 1.854 1.854 1.854 4.86 0 6.713-3.035 3.035-7.023 4.553-11.01 4.553z" fill="#734a9b"/><path d="m206.586 378.565c-14.12 0-25.607-11.487-25.607-25.607 0-2.434 1.974-4.408 4.408-4.408s4.408 1.974 4.408 4.408c0 9.258 7.532 16.79 16.79 16.79 2.434 0 4.408 1.974 4.408 4.408.001 2.435-1.973 4.409-4.407 4.409z" fill="#ffcbbe"/><path d="m193.093 324.745c-4.121 0-7.462-3.341-7.462-7.462v-15.546c0-4.121 3.341-7.462 7.462-7.462 4.121 0 7.462 3.341 7.462 7.462v15.546c0 4.121-3.341 7.462-7.462 7.462z" fill="#21386b"/><path d="m239.108 324.745c-4.121 0-7.462-3.341-7.462-7.462v-15.546c0-4.121 3.341-7.462 7.462-7.462 4.121 0 7.462 3.341 7.462 7.462v15.546c0 4.121-3.341 7.462-7.462 7.462z" fill="#21386b"/></g><g><circle cx="423.643" cy="88.357" fill="#dd5790" r="88.357"/><circle cx="423.643" cy="88.357" fill="#f9f6f6" r="74.357"/><circle cx="423.643" cy="88.357" fill="#f9f6f6" r="74.357"/><path d="m439.105 161.097c-4.99 1.06-10.16 1.62-15.46 1.62-41 0-74.36-33.36-74.36-74.36s33.36-74.36 74.36-74.36c5.3 0 10.47.56 15.46 1.62-33.6 7.13-58.89 37.04-58.89 72.74s25.29 65.61 58.89 72.74z" fill="#dddaec"/><g fill="#dd5790"><path d="m384.436 127.564c-4.972-4.972-4.972-13.034 0-18.006l60.407-60.407c4.972-4.972 13.034-4.972 18.006 0 4.972 4.972 4.972 13.034 0 18.006l-60.407 60.407c-4.972 4.972-13.034 4.972-18.006 0z"/><path d="m384.436 49.151c4.972-4.972 13.034-4.972 18.006 0l60.407 60.407c4.972 4.972 4.972 13.034 0 18.006-4.972 4.972-13.034 4.972-18.006 0l-60.407-60.407c-4.972-4.972-4.972-13.034 0-18.006z"/></g></g></g></svg>