<svg id="Capa_1" enable-background="new 0 0 512 512" height="512" viewBox="0 0 512 512" width="512" xmlns="http://www.w3.org/2000/svg"><g><path d="m512 256c0 29.7-5.06 58.23-14.37 84.75-27.05 77.15-97.603 68.098-176.432 91.418-6.68 1.98-5.917 73.032-12.818 74.462-16.91 3.52-34.43 5.37-52.38 5.37-141.38 0-256-114.62-256-256s114.62-256 256-256 256 114.62 256 256z" fill="#78c2a4"/><g><circle cx="423.643" cy="88.357" fill="#dd5790" r="88.357"/><circle cx="423.643" cy="88.357" fill="#f9f6f6" r="74.357"/><circle cx="423.643" cy="88.357" fill="#f9f6f6" r="74.357"/><path d="m439.105 161.097c-4.99 1.06-10.16 1.62-15.46 1.62-41 0-74.36-33.36-74.36-74.36s33.36-74.36 74.36-74.36c5.3 0 10.47.56 15.46 1.62-33.6 7.13-58.89 37.04-58.89 72.74s25.29 65.61 58.89 72.74z" fill="#dddaec"/><g fill="#dd5790"><path d="m384.436 127.564c-4.972-4.972-4.972-13.034 0-18.006l60.407-60.407c4.972-4.972 13.034-4.972 18.006 0 4.972 4.972 4.972 13.034 0 18.006l-60.407 60.407c-4.972 4.972-13.034 4.972-18.006 0z"/><path d="m384.436 49.151c4.972-4.972 13.034-4.972 18.006 0l60.407 60.407c4.972 4.972 4.972 13.034 0 18.006-4.972 4.972-13.034 4.972-18.006 0l-60.407-60.407c-4.972-4.972-4.972-13.034 0-18.006z"/></g></g><g><path d="m200.73 360.678c-80.061 0-134.27-72.726-172.327-183.963 38.058-111.237 92.267-176.715 172.327-176.715s153.437 69.102 191.494 180.339c-38.057 111.237-111.433 180.339-191.494 180.339z" fill="#ffcbbe"/><path d="m199.689 360.673c-82.35-.6-153.865-73.407-190.453-180.334 36.589-106.915 108.104-179.722 190.453-180.322-43.684 1.131-81.6 73.8-101.03 180.322 19.431 106.534 57.346 179.203 101.03 180.334z" fill="#eaac9d"/><path d="m392.227 180.339c-36.738 68.077-108.715 114.346-191.492 114.346-82.788 0-154.765-46.269-191.503-114.346 36.739-68.077 108.715-114.346 191.504-114.346 82.776 0 154.753 46.269 191.491 114.346z" fill="#f9f6f6"/><g><circle cx="200.73" cy="180.339" fill="#9dc6fb" r="89.321"/><circle cx="200.73" cy="180.339" fill="#26457d" r="42.974"/></g><path d="m200.736 294.684c-82.788 0-154.765-46.269-191.503-114.346 36.738-68.076 108.714-114.345 191.503-114.345-92.862 0-180.346 174.968 0 228.691z" fill="#dddaec"/><path d="m425.031 138.302c-5.098 0-9.231 4.133-9.231 9.231 0 11.244-7.912 20.675-18.461 23.017-2.956-5.141-6.116-10.119-9.428-14.966 15.321-6.281 26.145-21.351 26.145-38.908 0-5.098-4.133-9.231-9.231-9.231s-9.231 4.133-9.231 9.231c0 11.58-8.4 21.216-19.423 23.186-2.79-3.41-5.686-6.716-8.655-9.943 14.146-6.775 23.94-21.232 23.94-37.936 0-5.098-4.133-9.231-9.231-9.231s-9.231 4.133-9.231 9.231c0 11.864-8.818 21.682-20.239 23.311-2.571-2.325-5.178-4.607-7.848-6.808 12.854-7.199 21.566-20.946 21.566-36.696 0-5.098-4.133-9.231-9.231-9.231s-9.231 4.133-9.231 9.231c0 12.103-9.171 22.095-20.927 23.417-36.707-24.642-80.475-38.446-126.349-38.446-83.458 0-159.95 45.672-199.626 119.193-2.421 4.486-.747 10.086 3.739 12.507 1.394.753 2.895 1.109 4.376 1.109 3.283 0 6.462-1.756 8.131-4.849 36.45-67.542 106.717-109.499 183.38-109.499 76.562 0 146.747 41.857 183.235 109.254 1.525 3.04 4.669 5.093 8.253 5.093 23.179 0 42.037-18.858 42.037-42.037.001-5.098-4.131-9.23-9.229-9.23z" fill="#26457d"/></g><g><g><path d="m497.63 305.71v35.04c-29.35 83.7-100.97 147.53-189.25 165.88-1.38-2.26-3.04-4.38-4.94-6.29l-51.87-51.86-53.1-53.11c-6.37-6.35-9.56-14.68-9.56-23.03 0-8.34 3.19-16.67 9.54-23.02 1.49-1.49 3.1-2.8 4.78-3.94 12.68-8.61 30.06-7.3 41.29 3.94l29.5 29.48v-136.66c0-8.1 3.29-15.43 8.59-20.73 5.31-5.3 12.64-8.59 20.72-8.59 16.13 0 29.22 13.03 29.33 29.13v-24.94c0-16.25 13.3-29.95 29.57-29.81 2.31.02 4.55.3 6.7.82 5.3 1.3 10.03 4.03 13.77 7.75 5.3 5.3 8.58 12.64 8.58 20.74v30.29c0-16.21 13.12-29.33 29.32-29.33 8.09 0 15.42 3.27 20.74 8.59 5.3 5.3 8.57 12.62 8.57 20.72v58.93c0-6.58 2.68-12.54 7-16.87 4.3-4.3 10.27-6.98 16.87-6.98 13.17 0 23.85 10.68 23.85 23.85z" fill="#ffddce"/></g><g><path d="m449.913 374.871v-69.156c0-13.181 10.68-23.862 23.854-23.862 1.923 0 3.792.234 5.585.664-10.48 2.515-18.271 11.941-18.271 23.198v57.988c0 6.168-5 11.168-11.168 11.168z" fill="#ffcbbe"/></g><g fill="#ffcbbe"><path d="m310.315 213.661c-5.289 1.291-10.02 4.012-13.746 7.746-5.303 5.303-8.59 12.631-8.59 20.729v143.463h-7.167l-6.792-6.792v-136.671c0-8.098 3.286-15.426 8.59-20.729 5.303-5.311 12.639-8.59 20.729-8.59 2.406 0 4.739.294 6.976.844z"/><path d="m368.931 188.029c-5.284 1.294-10.016 4.014-13.73 7.74-5.308 5.308-8.591 12.628-8.591 20.728v115.379c-.006 7.71-6.254 13.958-13.958 13.958v-103.877-24.933c0-16.258 13.305-29.971 29.57-29.833 2.312.023 4.559.305 6.709.838z"/><path d="m391.282 346.752v-99.965c0-8.098 3.286-15.426 8.59-20.729 5.303-5.311 12.639-8.59 20.729-8.59 2.406 0 4.739.293 6.976.844-5.289 1.291-10.02 4.012-13.746 7.746-5.303 5.303-8.59 12.631-8.59 20.729v86.006c0 7.709-6.25 13.959-13.959 13.959z"/></g><g><path d="m328.77 501.5c-6.68 1.98-13.49 3.7-20.39 5.13-1.38-2.26-3.04-4.38-4.94-6.29l-51.87-51.86-53.1-53.11c-6.37-6.35-9.56-14.68-9.56-23.03 0-8.33 3.19-16.67 9.56-23.02 1.48-1.49 3.08-2.8 4.76-3.94 1.5-1.02 3.06-1.89 4.69-2.64-1.32 2.87-2.19 5.89-2.61 8.97-.23 1.51-.33 3.05-.33 4.57 0 8.35 3.18 16.68 9.53 23.05l104.97 104.97c4.75 4.73 7.96 10.73 9.29 17.2z" fill="#ffcbbe"/></g></g></g></svg>