<svg id="Capa_1" enable-background="new 0 0 512 512" height="512" viewBox="0 0 512 512" width="512" xmlns="http://www.w3.org/2000/svg"><g><path d="m512 256c0 22.58-2.92 44.49-8.42 65.36-8.47 32.16-71.241 7.028-90.601 32.928-25.1 33.59-48.101 34.562-86.461 52.542-24.69 11.58-13.488 47.386-41.718 50.546-9.45 1.07-18.526-24.902-28.266-24.902-21.35 0-35.886 17.871-55.716 12.93-15.65-3.88-14.858-3.356-29.218-9.976-18.18-8.38-28.357 4.909-43.937-7.311-8.98-7.03-19.978-1.831-27.938-9.981-.88-.91-1.102-11.029-1.972-11.948-6.57-6.94-22.177-33.608-27.956-41.258-17.3-22.92-49.057-3.629-57.916-31.639-7.721-24.391-11.881-50.351-11.881-77.291 0-141.38 114.62-256 256-256s256 114.62 256 256z" fill="#e4f6ff"/><g><path d="m248.8 255.411h-132.359c-8.243 0-14.926-6.683-14.926-14.926v-207.803c0-8.243 6.683-14.926 14.926-14.926h132.359c8.243 0 14.926 6.683 14.926 14.926v207.803c-.001 8.243-6.683 14.926-14.926 14.926zm-117.433-29.852h102.507v-177.951h-102.507z" fill="#26457d"/><g fill="#21386b"><path d="m117.478 240.485v-207.803c0-8.243 6.683-14.926 14.926-14.926h-15.962c-8.243 0-14.926 6.683-14.926 14.926v207.803c0 8.243 6.683 14.926 14.926 14.926h15.962c-8.244 0-14.926-6.683-14.926-14.926z"/><path d="m233.874 47.608h15.962v177.952h-15.962z"/></g><path d="m373.22 197.09v160.635c0 11.83-3.15 22.92-8.66 32.48-24.69 11.58-51.53 19.33-79.76 22.49-9.45 1.07-19.06 1.61-28.8 1.61-73.19 0-139.22-30.72-185.88-79.97v-137.245c0-35.98 29.16-65.14 65.13-65.14h172.83c35.97 0 65.14 29.16 65.14 65.14z" fill="#66b394"/><path d="m314.98 197.09v258.33c0 23.11-12.03 8.352-30.18 19.913-9.45 1.07-19.06 1.61-28.8 1.61-38.204 0-74.455 26.688-107.018 11.682-64.978-29.945-115.272-86.314-137.102-155.335v-136.2c0-35.98 29.16-65.14 65.13-65.14h172.83c35.98 0 65.14 29.16 65.14 65.14z" fill="#78c2a4"/><g fill="#66b394"><path d="m116.72 131.95c-35.97 0-65.14 29.16-65.14 65.14v213.04c-17.3-22.92-30.84-48.83-39.7-76.84v-136.2c0-35.98 29.15-65.14 65.12-65.14z"/><g><path d="m103.21 217.32v228.98c0 4.48-1.94 8.51-5.02 11.29-8.98-7.03-17.47-14.66-25.43-22.81v-217.46c0-8.4 6.82-15.22 15.22-15.22 4.2 0 8.01 1.7 10.77 4.46 2.75 2.76 4.46 6.56 4.46 10.76z"/><path d="m163.429 461.524c-8.406 0-15.221-6.815-15.221-15.221v-228.98c0-8.406 6.815-15.221 15.221-15.221 8.406 0 15.221 6.815 15.221 15.221v228.98c0 8.406-6.815 15.221-15.221 15.221z"/><path d="m238.873 461.524c-8.406 0-15.221-6.815-15.221-15.221v-228.98c0-8.406 6.815-15.221 15.221-15.221 8.406 0 15.221 6.815 15.221 15.221v228.98c0 8.406-6.815 15.221-15.221 15.221z"/></g></g></g><g><path d="m398.884 434.617h-132.358c-8.243 0-14.926-6.683-14.926-14.926v-207.803c0-8.243 6.683-14.926 14.926-14.926h132.358c8.243 0 14.926 6.683 14.926 14.926v207.803c0 8.244-6.682 14.926-14.926 14.926zm-117.432-29.851h102.507v-177.952h-102.507z" fill="#26457d"/><g fill="#21386b"><path d="m383.959 226.814h10.61v177.951h-10.61z"/><path d="m262.211 419.691v-207.803c0-8.243 6.683-14.926 14.926-14.926h-10.61c-8.243 0-14.926 6.683-14.926 14.926v207.803c0 8.243 6.683 14.926 14.926 14.926h10.61c-8.244 0-14.926-6.682-14.926-14.926z"/></g><path d="m503.58 285.52v35.84c-8.47 32.16-23.04 61.85-42.4 87.75-25.1 33.59-58.26 60.81-96.62 78.79-24.69 11.58-51.53 19.33-79.76 22.49-9.45 1.07-19.06 1.61-28.8 1.61-21.35 0-42.09-2.61-61.92-7.55-1.73-3.34-2.7-7.13-2.7-11.15v-207.78c0-13.44 10.89-24.33 24.33-24.33h263.54c13.44 0 24.33 10.89 24.33 24.33z" fill="#ffc250"/><path d="m461.18 285.52v123.59c-25.1 33.59-58.26 60.81-96.62 78.79-24.69 11.58-51.53 19.33-79.76 22.49-9.45 1.07-19.06 1.61-28.8 1.61-38.2 0-74.45-8.37-107.02-23.37v-203.11c0-13.44 10.89-24.33 24.33-24.33h263.54c13.44 0 24.33 10.89 24.33 24.33z" fill="#ffe07d"/><path d="m195.93 261.19c-13.44 0-24.33 10.89-24.33 24.33v212.24c-7.72-2.69-15.26-5.74-22.62-9.13v-203.11c0-13.44 10.89-24.33 24.33-24.33z" fill="#ffc250"/></g><g><circle cx="423.643" cy="88.357" fill="#dd5790" r="88.357"/><circle cx="423.643" cy="88.357" fill="#f9f6f6" r="74.357"/><circle cx="423.643" cy="88.357" fill="#f9f6f6" r="74.357"/><path d="m439.105 161.097c-4.99 1.06-10.16 1.62-15.46 1.62-41 0-74.36-33.36-74.36-74.36s33.36-74.36 74.36-74.36c5.3 0 10.47.56 15.46 1.62-33.6 7.13-58.89 37.04-58.89 72.74s25.29 65.61 58.89 72.74z" fill="#dddaec"/><g fill="#dd5790"><path d="m384.436 127.564c-4.972-4.972-4.972-13.034 0-18.006l60.407-60.407c4.972-4.972 13.034-4.972 18.006 0 4.972 4.972 4.972 13.034 0 18.006l-60.407 60.407c-4.972 4.972-13.034 4.972-18.006 0z"/><path d="m384.436 49.151c4.972-4.972 13.034-4.972 18.006 0l60.407 60.407c4.972 4.972 4.972 13.034 0 18.006-4.972 4.972-13.034 4.972-18.006 0l-60.407-60.407c-4.972-4.972-4.972-13.034 0-18.006z"/></g></g><circle cx="258.68" cy="378.23" fill="#f9f6f6" r="46.556"/><path d="m357.645 405.197-22.103-22.103c-8.182-8.182-21.446-8.182-29.628 0l-49.38 49.38c-8.182 8.182-8.182 21.446 0 29.628l22.103 22.103c8.182 8.182 21.446 8.182 29.628 0l49.38-49.38c8.181-8.182 8.181-21.447 0-29.628z" fill="#9dc6fb"/></g></svg>