<svg id="Layer_1" enable-background="new 0 0 512 512" height="512" viewBox="0 0 512 512" width="512" xmlns="http://www.w3.org/2000/svg"><g><path d="m496.5 87.5h-481c-4.418 0-8 3.582-8 8v354c0 4.418 3.582 8 8 8h481c4.418 0 8-3.582 8-8v-354c0-4.418-3.582-8-8-8zm-396.04 67c-10.49 0-19-8.51-19-19s8.51-19 19-19 19 8.51 19 19-8.51 19-19 19zm103.69 0c-10.49 0-19-8.51-19-19s8.51-19 19-19 19 8.51 19 19-8.51 19-19 19zm103.7 0c-10.49 0-19-8.51-19-19s8.51-19 19-19 19 8.51 19 19-8.51 19-19 19zm103.69 0c-10.49 0-19-8.51-19-19s8.51-19 19-19 19 8.51 19 19-8.51 19-19 19z" fill="#f3f3f3"/><g><path d="m496.5 87.5h-30c4.418 0 8 3.582 8 8v354c0 4.418-3.582 8-8 8h30c4.418 0 8-3.582 8-8v-354c0-4.418-3.582-8-8-8z" fill="#e4e4e4"/></g><path d="m496.5 457.5h-481c-4.418 0-8-3.582-8-8v-68h497v68c0 4.418-3.582 8-8 8z" fill="#f75632"/><path d="m474.5 381.5v68c0 4.418-3.582 8-8 8h30c4.418 0 8-3.582 8-8v-68z" fill="#e33629"/><g><path d="m496.5 80h-77.461v-25.5c0-4.143-3.358-7.5-7.5-7.5s-7.5 3.357-7.5 7.5v25.5h-88.692v-25.5c0-4.143-3.358-7.5-7.5-7.5s-7.5 3.357-7.5 7.5v25.5h-88.692v-25.5c0-4.143-3.358-7.5-7.5-7.5s-7.5 3.357-7.5 7.5v25.5h-88.692v-25.5c0-4.143-3.358-7.5-7.5-7.5s-7.5 3.357-7.5 7.5v25.5h-28.908c-4.142 0-7.5 3.357-7.5 7.5s3.358 7.5 7.5 7.5h28.907v15.088c-10.97 3.243-19 13.405-19 25.412 0 14.612 11.888 26.5 26.5 26.5s26.5-11.888 26.5-26.5c0-12.008-8.03-22.169-19-25.412v-15.088h88.692v15.088c-10.97 3.243-19 13.405-19 25.412 0 14.612 11.888 26.5 26.5 26.5s26.5-11.888 26.5-26.5c0-12.008-8.03-22.169-19-25.412v-15.088h88.692v15.088c-10.97 3.243-19 13.405-19 25.412 0 14.612 11.888 26.5 26.5 26.5s26.5-11.888 26.5-26.5c0-12.008-8.03-22.169-19-25.412v-15.088h88.692v15.088c-10.97 3.243-19 13.405-19 25.412 0 14.612 11.888 26.5 26.5 26.5s26.5-11.888 26.5-26.5c0-12.008-8.03-22.169-19-25.412v-15.088h77.462c.276 0 .5.225.5.5v224.364c0 4.143 3.358 7.5 7.5 7.5s7.5-3.357 7.5-7.5v-224.364c0-8.547-6.953-15.5-15.5-15.5zm-384.539 55.5c0 6.341-5.159 11.5-11.5 11.5s-11.5-5.159-11.5-11.5c0-3.475 1.556-6.588 4-8.699v1.699c0 4.143 3.358 7.5 7.5 7.5s7.5-3.357 7.5-7.5v-1.699c2.445 2.111 4 5.224 4 8.699zm103.693 0c0 6.341-5.159 11.5-11.5 11.5s-11.5-5.159-11.5-11.5c0-3.475 1.556-6.588 4-8.699v1.699c0 4.143 3.358 7.5 7.5 7.5s7.5-3.357 7.5-7.5v-1.699c2.444 2.111 4 5.224 4 8.699zm103.692 0c0 6.341-5.159 11.5-11.5 11.5s-11.5-5.159-11.5-11.5c0-3.475 1.556-6.588 4-8.699v1.699c0 4.143 3.358 7.5 7.5 7.5s7.5-3.357 7.5-7.5v-1.699c2.445 2.111 4 5.224 4 8.699zm103.693 0c0 6.341-5.159 11.5-11.5 11.5s-11.5-5.159-11.5-11.5c0-3.475 1.556-6.588 4-8.699v1.699c0 4.143 3.358 7.5 7.5 7.5s7.5-3.357 7.5-7.5v-1.699c2.444 2.111 4 5.224 4 8.699z"/><path d="m504.5 344.179c-4.142 0-7.5 3.357-7.5 7.5v22.321h-482v-278.5c0-.275.224-.5.5-.5h16.555c4.142 0 7.5-3.357 7.5-7.5s-3.358-7.5-7.5-7.5h-16.555c-8.547 0-15.5 6.953-15.5 15.5v354c0 8.547 6.953 15.5 15.5 15.5h80.647c4.142 0 7.5-3.357 7.5-7.5s-3.358-7.5-7.5-7.5h-80.647c-.276 0-.5-.225-.5-.5v-60.5h482v60.5c0 .275-.224.5-.5.5h-368.259c-4.142 0-7.5 3.357-7.5 7.5s3.358 7.5 7.5 7.5h368.259c8.547 0 15.5-6.953 15.5-15.5v-97.821c0-4.143-3.358-7.5-7.5-7.5z"/><path d="m310.417 235.003c-1.414-3.438-4.729-5.657-8.445-5.657h-.008c-3.721.003-7.035 2.229-8.444 5.673-.023.057-.045.114-.067.172l-27.042 71.002c-1.474 3.87.468 8.203 4.339 9.678.879.335 1.781.493 2.668.493 3.022 0 5.871-1.84 7.01-4.833l4.895-12.852h33.096l4.842 12.831c1.462 3.874 5.789 5.83 9.665 4.368 3.875-1.462 5.832-5.789 4.369-9.665l-26.796-71.005c-.027-.068-.054-.137-.082-.205zm-19.382 48.676 10.911-28.647 10.811 28.647z"/><path d="m208.65 307.727c0 .532.057 1.05.162 1.55.103 1.847.876 3.598 2.196 4.907 1.405 1.396 3.304 2.178 5.284 2.178h.028c.598-.002 14.703-.056 20.333-.154 20.288-.354 35.012-18.139 35.012-42.288 0-25.387-14.355-42.443-35.722-42.443h-19.793c-1.992 0-3.901.792-5.308 2.202-1.407 1.409-2.196 3.32-2.192 5.313v.056.002zm27.293-61.251c15.278 0 20.722 14.177 20.722 27.443 0 12.974-6.344 27.047-20.274 27.29-2.88.051-8.185.09-12.625.115-.027-8.251-.065-21.17-.065-27.482 0-5.267-.022-18.789-.037-27.366z"/><path d="m414.187 301.361c-7.575 0-14.879-3.069-19.539-8.211-2.781-3.069-7.524-3.303-10.594-.521s-3.303 7.524-.521 10.594c7.456 8.228 18.915 13.139 30.654 13.139 14.215 0 26.607-9.367 28.825-21.789 1.686-9.442-2.676-21.807-19.977-28.188-9.087-3.352-17.53-7.007-19.86-8.029-1.911-1.451-2.833-3.733-2.479-6.202.223-1.556 1.332-5.353 6.782-6.994 10.967-3.309 20.976 4.675 21.204 4.858 3.169 2.636 7.879 2.219 10.535-.941 2.666-3.171 2.256-7.901-.915-10.567-.655-.55-16.247-13.408-35.15-7.713-9.376 2.824-16.006 10.191-17.303 19.227-1.212 8.44 2.445 16.56 9.543 21.188.332.216.679.405 1.041.566.415.185 10.289 4.58 21.411 8.682 7.423 2.739 11.214 6.922 10.401 11.479-.827 4.629-6.312 9.422-14.058 9.422z"/><path d="m380.217 230.743c-3.471-2.262-8.117-1.279-10.377 2.193l-16.539 25.406-16.714-25.598c-2.265-3.469-6.913-4.441-10.38-2.18-3.468 2.265-4.444 6.912-2.179 10.381l21.778 33.352-.084 34.544c-.01 4.143 3.339 7.509 7.481 7.519h.019c4.133 0 7.489-3.346 7.5-7.481l.084-34.57 21.606-33.19c2.258-3.471 1.276-8.116-2.195-10.376z"/><path d="m91.446 316.361c4.142 0 7.5-3.357 7.5-7.5v-71.594c0-4.143-3.358-7.5-7.5-7.5h-15.302c-4.142 0-7.5 3.357-7.5 7.5s3.358 7.5 7.5 7.5h7.803v64.094c-.001 4.143 3.357 7.5 7.499 7.5z"/><path d="m165.766 241.607c-.457-5.477-3.731-9.938-8.343-11.366-4.567-1.416-9.44.374-13.037 4.785-4.041 4.959-22.824 38.821-28.484 49.082-1.282 2.323-1.241 5.151.108 7.437 1.349 2.284 3.805 3.687 6.458 3.687h28.252c-.035 4.806-.072 9.417-.107 13.565-.036 4.142 3.293 7.528 7.435 7.564h.066c4.111 0 7.463-3.315 7.498-7.436.022-2.532.064-7.523.109-13.694h1.705c4.142 0 7.5-3.357 7.5-7.5s-3.358-7.5-7.5-7.5h-1.604c.102-17.32.157-36.059-.056-38.624zm-14.947 38.624h-15.609c5.905-10.57 11.685-20.729 15.705-27.548.005 7.087-.036 17.13-.096 27.548z"/></g></g></svg>