<svg height="512" viewBox="0 0 64 64" width="512" xmlns="http://www.w3.org/2000/svg"><g id="Sneeze"><path d="m36 38v12h2v11h-20v-11h2v-12h-6v-4a8.012 8.012 0 0 1 7-8l5 7 2-4 2 4 5-7a8.012 8.012 0 0 1 7 8v4z" fill="#00d7df"/><path d="m35 50h3v11h-3z" fill="#009698"/><path d="m42 34v4h-3v-4a8.056 8.056 0 0 0 -4.52-7.27l.52-.73a8.012 8.012 0 0 1 7 8z" fill="#009698"/><circle cx="51" cy="13" fill="#ff3051" r="10"/><path d="m61 13a10 10 0 0 1 -18.78 4.78 9.9 9.9 0 0 0 4.78 1.22 10 10 0 0 0 10-10 9.9 9.9 0 0 0 -1.22-4.78 9.984 9.984 0 0 1 5.22 8.78z" fill="#b02109"/><circle cx="51" cy="13" fill="#cd2a00" r="4"/><g fill="#ffdaaa"><path d="m42 47v.16a3.128 3.128 0 0 1 -3.17 2.84h-20.83a4 4 0 0 1 -4-4v-8h6v6h15v-1a1.984 1.984 0 0 1 1-1.73 2.02 2.02 0 0 1 1.34-.24 2.072 2.072 0 0 1 1.66 2.08v.89a3 3 0 0 1 3 3z"/><path d="m42 38v9a3 3 0 0 0 -3-3v-.89a2.072 2.072 0 0 0 -1.66-2.08 2.02 2.02 0 0 0 -1.34.24v-3.27z"/><path d="m37 14v1a1 1 0 0 1 -1 1h-2v-3h2a1 1 0 0 1 1 1z"/></g><path d="m37 3v4a5.985 5.985 0 0 1 -3 5.19v-2.19l-8-2-4 2v3h-1a2.006 2.006 0 0 1 -2-2v-2a6 6 0 0 1 6-6z" fill="#57565c"/><path d="m35 26-5 7-2-4 3-3 1-1z" fill="#ffde55"/><path d="m34 10v6a6 6 0 1 1 -12 0v-6l4-2z" fill="#ffdaaa"/><path d="m30.26 21.56.74 4.44-3 3-3-3 .74-4.44a6.024 6.024 0 0 0 4.52 0z" fill="#ffdaaa"/><path d="m34 10v6a6.009 6.009 0 0 1 -3.74 5.56 5.893 5.893 0 0 1 -1.93.42l-.07-.42a6.009 6.009 0 0 0 3.74-5.56v-6l-6.67-1.67.67-.33z" fill="#ffc477"/><path d="m31 26-3 3-1-1 2-2-.67-4.02a5.893 5.893 0 0 0 1.93-.42z" fill="#ffc477"/><path d="m28 29-2 4-5-7 3-1 1 1z" fill="#ffde55"/><path d="m22 13v3h-2a1 1 0 0 1 -1-1v-1a1 1 0 0 1 1-1z" fill="#ffdaaa"/><path d="m29 13h2v2h-2z"/><path d="m25 13h2v2h-2z"/><path d="m35.21 25.02-3.36-.84-.45-2.07a7 7 0 0 0 3.52-5.11h1.08a2.006 2.006 0 0 0 2-2v-1a2.006 2.006 0 0 0 -2-2h-.11a7.045 7.045 0 0 0 2.11-5v-4a1 1 0 0 0 -1-1h-12a7.008 7.008 0 0 0 -7 7v2a3.026 3.026 0 0 0 .51 1.68 1.989 1.989 0 0 0 -.51 1.32v1a2.006 2.006 0 0 0 2 2h1.08a7 7 0 0 0 3.52 5.11l-.45 2.07-3.36.84a9.011 9.011 0 0 0 -7.79 8.98v16a1 1 0 0 0 1 1h3v10a1 1 0 0 0 1 1h20a1 1 0 0 0 1-1v-10a4 4 0 0 0 4-4v-13a9.011 9.011 0 0 0 -7.79-8.98zm-1.88 1.59-3.18 4.46-.98-1.96 2.23-2.98zm-5.33.72-1.93-2.57.42-1.93a6.791 6.791 0 0 0 3.02 0l.42 1.93zm8-13.33v1h-1v-1zm-15 1h-1v-1h1zm0-5v2a1 1 0 0 1 -1-1v-2a5 5 0 0 1 5-5h11v3a4.979 4.979 0 0 1 -1 2.99 1.014 1.014 0 0 0 -.76-.96l-8-2a.978.978 0 0 0 -.69.08l-4 2a.988.988 0 0 0 -.55.89zm2 6v-5.38l3.12-1.56 6.88 1.72v5.22a5 5 0 0 1 -10 0zm1.6 10.13 2.23 2.98-.98 1.96-3.18-4.46zm12.4 33.87h-18v-9h18zm2-11h-24v-10h4v5a1 1 0 0 0 1 1h15a1 1 0 0 0 1-1v-1a1 1 0 0 1 2 0v1a1 1 0 0 0 1 1 2 2 0 0 1 0 4zm2-5.45a3.851 3.851 0 0 0 -1-.42v-.13a3.009 3.009 0 0 0 -3-3v-1h4zm0-6.55h-5a1 1 0 0 0 -1 1v2.78a2.986 2.986 0 0 0 -1 2.22h-13v-5a1 1 0 0 0 -1-1h-5v-3a7.015 7.015 0 0 1 5.55-6.91l4.64 6.49a.97.97 0 0 0 .89.42.993.993 0 0 0 .81-.55l1.11-2.21 1.11 2.21a.993.993 0 0 0 .81.55h.08a.983.983 0 0 0 .81-.42l4.64-6.49a7.015 7.015 0 0 1 5.55 6.91z"/><path d="m27 35h2v2h-2z"/><path d="m27 39h2v2h-2z"/><path d="m50 26h2a2.258 2.258 0 0 0 .759 1.681 4.208 4.208 0 0 1 0 5.967 2.246 2.246 0 0 0 0 3.368 4.21 4.21 0 0 1 0 5.968 2.246 2.246 0 0 0 0 3.368 4.208 4.208 0 0 1 0 5.967 2.258 2.258 0 0 0 -.759 1.681h-2a4.162 4.162 0 0 1 1.241-2.983 2.243 2.243 0 0 0 0-3.365 4.21 4.21 0 0 1 0-5.968 2.246 2.246 0 0 0 0-3.368 4.21 4.21 0 0 1 0-5.968 2.243 2.243 0 0 0 0-3.365 4.162 4.162 0 0 1 -1.241-2.983z"/><path d="m45 26h2a2.258 2.258 0 0 0 .759 1.681 4.208 4.208 0 0 1 0 5.967 2.246 2.246 0 0 0 0 3.368 4.21 4.21 0 0 1 0 5.968 2.246 2.246 0 0 0 0 3.368 4.208 4.208 0 0 1 0 5.967 2.258 2.258 0 0 0 -.759 1.681h-2a4.162 4.162 0 0 1 1.241-2.983 2.243 2.243 0 0 0 0-3.365 4.21 4.21 0 0 1 0-5.968 2.246 2.246 0 0 0 0-3.368 4.21 4.21 0 0 1 0-5.968 2.243 2.243 0 0 0 0-3.365 4.162 4.162 0 0 1 -1.241-2.983z"/><path d="m6 26h-2a2.258 2.258 0 0 1 -.759 1.681 4.208 4.208 0 0 0 0 5.967 2.246 2.246 0 0 1 0 3.368 4.21 4.21 0 0 0 0 5.968 2.246 2.246 0 0 1 0 3.368 4.208 4.208 0 0 0 0 5.967 2.258 2.258 0 0 1 .759 1.681h2a4.162 4.162 0 0 0 -1.241-2.983 2.243 2.243 0 0 1 0-3.365 4.21 4.21 0 0 0 0-5.968 2.246 2.246 0 0 1 0-3.368 4.21 4.21 0 0 0 0-5.968 2.243 2.243 0 0 1 0-3.365 4.162 4.162 0 0 0 1.241-2.983z"/><path d="m11 26h-2a2.258 2.258 0 0 1 -.759 1.681 4.208 4.208 0 0 0 0 5.967 2.246 2.246 0 0 1 0 3.368 4.21 4.21 0 0 0 0 5.968 2.246 2.246 0 0 1 0 3.368 4.208 4.208 0 0 0 0 5.967 2.258 2.258 0 0 1 .759 1.681h2a4.162 4.162 0 0 0 -1.241-2.983 2.243 2.243 0 0 1 0-3.365 4.21 4.21 0 0 0 0-5.968 2.246 2.246 0 0 1 0-3.368 4.21 4.21 0 0 0 0-5.968 2.243 2.243 0 0 1 0-3.365 4.162 4.162 0 0 0 1.241-2.983z"/><path d="m51 2a11 11 0 1 0 11 11 11.007 11.007 0 0 0 -11-11zm0 20a9 9 0 1 1 9-9 9.014 9.014 0 0 1 -9 9z"/><path d="m55.9 12a4.961 4.961 0 0 0 -.732-1.753l1.49-1.49-1.415-1.414-1.49 1.49a4.961 4.961 0 0 0 -1.753-.733v-2.1h-2v2.1a4.961 4.961 0 0 0 -1.753.732l-1.49-1.49-1.414 1.415 1.49 1.49a4.961 4.961 0 0 0 -.733 1.753h-2.1v2h2.1a4.961 4.961 0 0 0 .732 1.753l-1.49 1.49 1.414 1.414 1.49-1.49a4.961 4.961 0 0 0 1.754.733v2.1h2v-2.1a4.961 4.961 0 0 0 1.753-.732l1.49 1.49 1.414-1.414-1.49-1.49a4.961 4.961 0 0 0 .733-1.754h2.1v-2zm-4.9 4a3 3 0 1 1 3-3 3 3 0 0 1 -3 3z"/><path d="m50 12h2v2h-2z"/></g></svg>